# xmcd CD database file generated by Grip 3.3.1
# 
# Track frame offsets:
#       150
#       22032
#       44465
#       62746
#       77707
#       96698
#       113352
#       129918
#       142970
#       155433
#       166177
#       179997
#       193035
#       208329
#       227035
#       245720
#       258055
# 
# Disc length: 3735 seconds
# 
# Revision: 1
# Processed by: cddbd v1.5.2PL0 Copyright (c) Steve Scherf et al.
# Submitted via: Grip 3.3.1
# 
DISCID=f10e9511
DTITLE=Various Artist - Motown 50 CD 3
DYEAR=2008
DGENRE=Other
TTITLE0=Stevie Wonder - Master Blaster (Jammin')
TTITLE1=Commodores - Nightshift
TTITLE2=Diana Ross - Upside Down
TTITLE3=Rick James - Super Freak
TTITLE4=The Temptations - Treat Her Like A Lady
TTITLE5=Lionel Richie - My Destiny
TTITLE6=Stevie Wonder - Light My Fire
TTITLE7=Four Tops - Everybody's Talking
TTITLE8=Rare Earth - Get Ready
TTITLE9=Kim Weston and Marvin Gaye - Let's Do It (Let's Fall In Love)
TTITLE10=Martha Reeves and The Vandellas - I Say A Little Prayer
TTITLE11=Smokey Robinson and The Miracles - Wichita Lineman
TTITLE12=Thelma Houston - Jumin' Jack Flash
TTITLE13=The Temptations - The First Time I Ever Saw Your Face
TTITLE14=The Supremes - Come Together
TTITLE15=David Ruffin - Put A Little Love In Your Heart
TTITLE16=Michael Jackson - You've Got A Friend
EXTD=
EXTT0=
EXTT1=
EXTT2=
EXTT3=
EXTT4=
EXTT5=
EXTT6=
EXTT7=
EXTT8=
EXTT9=
EXTT10=
EXTT11=
EXTT12=
EXTT13=
EXTT14=
EXTT15=
EXTT16=
PLAYORDER=
